HIERARCHY
ROOT Hips
{
	OFFSET 0.000000 83.214638 0.000000
	CHANNELS 6 Xposition Yposition Zposition Xrotation Yrotation Zrotation
	JOINT Pelvis
	{
		OFFSET 0.000000 0.000000 0.000000
		CHANNELS 3 Xrotation Yrotation Zrotation
		JOINT LeftUpLeg
		{
			OFFSET 8.479700 -4.795502 -0.379100
			CHANNELS 3 Xrotation Yrotation Zrotation
			JOINT LeftLeg
			{
				OFFSET 0.024144 -32.555107 0.112900
				CHANNELS 3 Xrotation Yrotation Zrotation
				JOINT LeftFoot
				{
					OFFSET -0.024144 -32.638630 -3.012600
					CHANNELS 3 Xrotation Yrotation Zrotation
					JOINT LeftToeBase
					{
						OFFSET 0.970200 -13.225400 11.864200
						CHANNELS 3 Xrotation Yrotation Zrotation
						End Site
						{
							OFFSET 0.000000 12.319262 0.000000
						}
					}
					JOINT LFootTongue
					{
						OFFSET 1.142400 -1.059800 6.665200
						CHANNELS 3 Xrotation Yrotation Zrotation
						End Site
						{
							OFFSET 0.000000 12.319262 0.000000
						}
					}
				}
				JOINT LeftPantLeg
				{
					OFFSET 0.918482 -16.533964 -2.284700
					CHANNELS 3 Xrotation Yrotation Zrotation
					End Site
					{
						OFFSET 0.350399 24.744368 0.000000
					}
				}
			}
		}
		JOINT RightUpLeg
		{
			OFFSET -8.479700 -4.795502 -0.379100
			CHANNELS 3 Xrotation Yrotation Zrotation
			JOINT RightLeg
			{
				OFFSET -0.023144 -32.555092 0.112900
				CHANNELS 3 Xrotation Yrotation Zrotation
				JOINT RightFoot
				{
					OFFSET 0.023144 -32.638641 -3.012700
					CHANNELS 3 Xrotation Yrotation Zrotation
					JOINT RightToeBase
					{
						OFFSET -0.970200 -13.225400 11.864200
						CHANNELS 3 Xrotation Yrotation Zrotation
						End Site
						{
							OFFSET 0.000000 12.319244 0.000000
						}
					}
					JOINT RFootTongue
					{
						OFFSET -1.142200 -1.059800 6.665200
						CHANNELS 3 Xrotation Yrotation Zrotation
						End Site
						{
							OFFSET 0.000000 12.319243 0.000000
						}
					}
				}
				JOINT RightPantLeg
				{
					OFFSET -0.919482 -16.533978 -2.284800
					CHANNELS 3 Xrotation Yrotation Zrotation
					End Site
					{
						OFFSET -0.350400 24.744419 0.000000
					}
				}
			}
		}
	}
	JOINT Spine
	{
		OFFSET 0.000000 7.722000 1.166200
		CHANNELS 3 Xrotation Yrotation Zrotation
		JOINT Spine1
		{
			OFFSET 0.000000 12.024101 0.248800
			CHANNELS 3 Xrotation Yrotation Zrotation
			JOINT Spine2
			{
				OFFSET 0.000000 11.502998 -0.491200
				CHANNELS 3 Xrotation Yrotation Zrotation
				JOINT Neck
				{
					OFFSET 0.000000 18.430702 -3.123100
					CHANNELS 3 Xrotation Yrotation Zrotation
					JOINT Head
					{
						OFFSET 0.000000 9.051102 1.034000
						CHANNELS 3 Xrotation Yrotation Zrotation
						JOINT HairB
						{
							OFFSET 0.208400 24.786102 24.822300
							CHANNELS 3 Xrotation Yrotation Zrotation
							End Site
							{
								OFFSET 0.000000 32.263779 0.000000
							}
						}
						JOINT HairA
						{
							OFFSET -7.081100 24.428299 23.196600
							CHANNELS 3 Xrotation Yrotation Zrotation
							End Site
							{
								OFFSET 0.000000 32.263779 0.000000
							}
						}
						JOINT Hat
						{
							OFFSET 16.728800 15.048294 -15.439601
							CHANNELS 3 Xrotation Yrotation Zrotation
							End Site
							{
								OFFSET 0.000000 32.263779 0.000000
							}
						}
					}
				}
				JOINT LeftShoulder
				{
					OFFSET 6.197800 13.665199 -4.064700
					CHANNELS 3 Xrotation Yrotation Zrotation
					JOINT LeftArm
					{
						OFFSET 7.778100 -0.187103 -1.709300
						CHANNELS 3 Xrotation Yrotation Zrotation
						JOINT LeftForeArm
						{
							OFFSET 22.049376 0.000000 0.000000
							CHANNELS 3 Xrotation Yrotation Zrotation
							JOINT LeftHand
							{
								OFFSET 23.009392 0.000000 0.000000
								CHANNELS 3 Xrotation Yrotation Zrotation
								JOINT LeftHandThumb1
								{
									OFFSET 3.507191 -2.063065 3.133727
									CHANNELS 3 Xrotation Yrotation Zrotation
									JOINT LeftHandThumb2
									{
										OFFSET 3.101337 -1.790558 1.790558
										CHANNELS 3 Xrotation Yrotation Zrotation
										JOINT LeftHandThumb3
										{
											OFFSET 3.058640 -1.765907 1.765906
											CHANNELS 3 Xrotation Yrotation Zrotation
											End Site
											{
												OFFSET -0.415260 3.926476 -0.049563
											}
										}
									}
								}
								JOINT LeftHandIndex1
								{
									OFFSET 11.334419 -0.901459 3.706815
									CHANNELS 3 Xrotation Yrotation Zrotation
									JOINT LeftHandIndex2
									{
										OFFSET 3.283112 0.000000 0.000000
										CHANNELS 3 Xrotation Yrotation Zrotation
										JOINT LeftHandIndex3
										{
											OFFSET 3.323853 0.000000 0.000000
											CHANNELS 3 Xrotation Yrotation Zrotation
											End Site
											{
												OFFSET -1.135597 3.097809 0.402452
											}
										}
									}
								}
								JOINT LeftHandMiddle1
								{
									OFFSET 11.335861 0.000000 0.000000
									CHANNELS 3 Xrotation Yrotation Zrotation
									JOINT LeftHandMiddle2
									{
										OFFSET 3.410492 0.000000 0.000000
										CHANNELS 3 Xrotation Yrotation Zrotation
										JOINT LeftHandMiddle3
										{
											OFFSET 3.312172 0.000000 0.000000
											CHANNELS 3 Xrotation Yrotation Zrotation
											End Site
											{
												OFFSET -1.150200 3.080154 0.400270
											}
										}
									}
								}
								JOINT LeftHandRing1
								{
									OFFSET 11.514786 -0.013176 -3.003090
									CHANNELS 3 Xrotation Yrotation Zrotation
									JOINT LeftHandRing2
									{
										OFFSET 3.053307 0.000000 0.000000
										CHANNELS 3 Xrotation Yrotation Zrotation
										JOINT LeftHandRing3
										{
											OFFSET 3.295807 0.000000 0.000000
											CHANNELS 3 Xrotation Yrotation Zrotation
											End Site
											{
												OFFSET -1.281006 3.013344 0.375733
											}
										}
									}
								}
								JOINT LeftHandPinky1
								{
									OFFSET 10.518692 -0.960396 -5.730441
									CHANNELS 3 Xrotation Yrotation Zrotation
									JOINT LeftHandPinky2
									{
										OFFSET 2.861649 0.000000 0.000000
										CHANNELS 3 Xrotation Yrotation Zrotation
										JOINT LeftHandPinky3
										{
											OFFSET 2.863380 0.000000 0.000000
											CHANNELS 3 Xrotation Yrotation Zrotation
											End Site
											{
												OFFSET -0.843597 2.711159 0.369971
											}
										}
									}
								}
							}
							JOINT LSleeve
							{
								OFFSET 6.676277 -0.344902 -1.011730
								CHANNELS 3 Xrotation Yrotation Zrotation
								End Site
								{
									OFFSET 0.000000 14.885353 0.000000
								}
							}
						}
					}
				}
				JOINT RightShoulder
				{
					OFFSET -6.197800 13.665199 -4.064700
					CHANNELS 3 Xrotation Yrotation Zrotation
					JOINT RightArm
					{
						OFFSET -7.778100 -0.187103 -1.709300
						CHANNELS 3 Xrotation Yrotation Zrotation
						JOINT RightForeArm
						{
							OFFSET -22.049376 0.000000 0.000000
							CHANNELS 3 Xrotation Yrotation Zrotation
							JOINT RightHand
							{
								OFFSET -23.009392 0.000000 0.000000
								CHANNELS 3 Xrotation Yrotation Zrotation
								JOINT RightHandThumb1
								{
									OFFSET -3.507191 -2.063065 3.133727
									CHANNELS 3 Xrotation Yrotation Zrotation
									JOINT RightHandThumb2
									{
										OFFSET -3.101337 -1.790558 1.790558
										CHANNELS 3 Xrotation Yrotation Zrotation
										JOINT RightHandThumb3
										{
											OFFSET -3.058640 -1.765907 1.765906
											CHANNELS 3 Xrotation Yrotation Zrotation
											End Site
											{
												OFFSET 0.415260 3.926476 -0.049563
											}
										}
									}
								}
								JOINT RightHandIndex1
								{
									OFFSET -11.334419 -0.901459 3.706815
									CHANNELS 3 Xrotation Yrotation Zrotation
									JOINT RightHandIndex2
									{
										OFFSET -3.283112 0.000000 0.000000
										CHANNELS 3 Xrotation Yrotation Zrotation
										JOINT RightHandIndex3
										{
											OFFSET -3.323853 0.000000 0.000000
											CHANNELS 3 Xrotation Yrotation Zrotation
											End Site
											{
												OFFSET 1.135597 3.097809 0.402452
											}
										}
									}
								}
								JOINT RightHandMiddle1
								{
									OFFSET -11.335861 0.000000 0.000000
									CHANNELS 3 Xrotation Yrotation Zrotation
									JOINT RightHandMiddle2
									{
										OFFSET -3.410492 0.000000 0.000000
										CHANNELS 3 Xrotation Yrotation Zrotation
										JOINT RightHandMiddle3
										{
											OFFSET -3.312172 0.000000 0.000000
											CHANNELS 3 Xrotation Yrotation Zrotation
											End Site
											{
												OFFSET 1.150200 3.080154 0.400270
											}
										}
									}
								}
								JOINT RightHandRing1
								{
									OFFSET -11.514786 -0.013176 -3.003090
									CHANNELS 3 Xrotation Yrotation Zrotation
									JOINT RightHandRing2
									{
										OFFSET -3.053307 0.000000 0.000000
										CHANNELS 3 Xrotation Yrotation Zrotation
										JOINT RightHandRing3
										{
											OFFSET -3.295807 0.000000 0.000000
											CHANNELS 3 Xrotation Yrotation Zrotation
											End Site
											{
												OFFSET 1.281006 3.013344 0.375733
											}
										}
									}
								}
								JOINT RightHandPinky1
								{
									OFFSET -10.518692 -0.960396 -5.730441
									CHANNELS 3 Xrotation Yrotation Zrotation
									JOINT RightHandPinky2
									{
										OFFSET -2.861649 0.000000 0.000000
										CHANNELS 3 Xrotation Yrotation Zrotation
										JOINT RightHandPinky3
										{
											OFFSET -2.863380 0.000000 0.000000
											CHANNELS 3 Xrotation Yrotation Zrotation
											End Site
											{
												OFFSET 0.843597 2.711159 0.369971
											}
										}
									}
								}
							}
							JOINT RSleeve
							{
								OFFSET -6.676277 -0.344902 -1.011730
								CHANNELS 3 Xrotation Yrotation Zrotation
								End Site
								{
									OFFSET 0.000000 14.885353 0.000000
								}
							}
						}
					}
				}
				JOINT Backpack
				{
					OFFSET 0.000000 -2.471497 36.677502
					CHANNELS 3 Xrotation Yrotation Zrotation
					End Site
					{
						OFFSET 0.000000 20.427315 0.000000
					}
				}
				JOINT Hood
				{
					OFFSET 0.000000 18.754097 -10.431000
					CHANNELS 3 Xrotation Yrotation Zrotation
					JOINT Hood1
					{
						OFFSET 0.000000 -5.011002 -7.685901
						CHANNELS 3 Xrotation Yrotation Zrotation
						End Site
						{
							OFFSET 0.000000 9.175140 0.000000
						}
					}
				}
				JOINT LHoodieString
				{
					OFFSET 5.250500 16.397697 3.089900
					CHANNELS 3 Xrotation Yrotation Zrotation
					JOINT LHoodieString1
					{
						OFFSET 0.257700 -6.364304 3.694600
						CHANNELS 3 Xrotation Yrotation Zrotation
						JOINT LHoodieString2
						{
							OFFSET 0.000000 -9.643799 2.679100
							CHANNELS 3 Xrotation Yrotation Zrotation
							End Site
							{
								OFFSET 0.000000 10.009018 0.000000
							}
						}
					}
				}
				JOINT RHoodieString
				{
					OFFSET -5.250500 16.397697 3.089900
					CHANNELS 3 Xrotation Yrotation Zrotation
					JOINT RHoodieString1
					{
						OFFSET -0.257700 -6.364304 3.694600
						CHANNELS 3 Xrotation Yrotation Zrotation
						JOINT RHoodieString2
						{
							OFFSET 0.000000 -9.643799 2.679100
							CHANNELS 3 Xrotation Yrotation Zrotation
							End Site
							{
								OFFSET 0.000000 10.009018 0.000000
							}
						}
					}
				}
			}
			JOINT LBackpack_Strap
			{
				OFFSET 15.223200 -7.719803 -6.610900
				CHANNELS 3 Xrotation Yrotation Zrotation
				End Site
				{
					OFFSET 0.000000 16.040596 0.000000
				}
			}
			JOINT RBackpack_Strap
			{
				OFFSET -15.223000 -7.719803 -6.610900
				CHANNELS 3 Xrotation Yrotation Zrotation
				End Site
				{
					OFFSET 0.000000 16.040596 0.000000
				}
			}
		}
	}
	JOINT BoyFacialAnim_Joint
	{
		OFFSET 1.000000 -82.208099 -1.550900
		CHANNELS 3 Xrotation Yrotation Zrotation
		End Site
		{
			OFFSET 0.000000 30.012791 0.000000
		}
	}
}
MOTION
Frames: 4
Frame Time: 0.033333
0.897370 78.347649 0.799441 -5.245544 11.920252 2.878065 0.000000 0.000000 0.000000 -10.562631 9.086835 13.529007 28.510919 4.720116 4.020161 -10.831034 2.201329 -16.382154 0.000000 -0.000002 -0.000000 0.000000 -0.000002 0.000000 -0.000001 -0.000001 -0.000000 -3.234432 -17.540887 -20.261567 24.731056 4.865605 -0.869509 -17.506507 -3.027301 14.715113 -0.000000 0.000000 0.000000 -0.000000 0.000000 0.000000 0.000000 -0.000000 0.000001 3.726597 -0.162878 -0.162085 4.872217 -0.376888 -0.004779 4.871283 -0.390512 -0.012436 6.159361 10.091712 -5.828978 17.143910 51.112341 -27.547065 0.000001 -0.000001 -0.000000 0.000001 -0.000001 -0.000000 0.000001 -0.000001 -0.000000 3.423476 -5.818718 -11.232982 -14.676837 4.457102 -49.050812 0.000011 -30.914649 0.000011 -28.399865 39.302879 9.462057 21.375432 17.212842 -6.788023 5.599769 22.840882 1.232507 -0.000000 -0.000003 -0.000001 1.055313 3.873078 -23.235122 0.659103 2.944584 -25.228810 0.000001 0.000001 -0.000002 7.022679 8.449506 -55.265574 4.966940 6.610802 -73.811122 0.000002 -0.000001 -0.000000 8.366580 8.668979 -61.027242 4.291458 6.377451 -67.844167 0.000000 -0.000002 -0.000001 8.514117 7.908518 -69.980110 3.803138 2.069524 -63.453243 0.000001 -0.000002 -0.000002 -0.000000 0.000000 0.000001 0.386489 -0.279453 3.483038 5.994550 5.768976 67.930732 -0.000016 19.378536 0.000013 -14.103911 -9.859527 26.377053 1.307811 -7.873172 4.173768 9.206996 -26.318537 -1.357239 -0.000002 -0.000002 0.000001 -1.317412 1.102702 26.203401 0.456824 -2.483144 20.845375 -0.000001 -0.000001 0.000007 -0.343117 1.057321 11.308888 1.012001 -3.617447 31.249331 0.000003 -0.000000 0.000005 0.868501 -3.823503 17.432038 0.870120 -3.373017 28.922518 0.000000 -0.000001 0.000005 0.885471 -3.534681 22.207703 0.582347 -2.790253 23.573334 -0.000001 0.000000 -0.000001 0.000001 0.000001 -0.000001 0.000001 0.000000 0.000000 0.000001 0.000000 0.000000 0.000001 0.000000 0.000000 0.000001 0.000000 0.000000 0.000001 0.000000 -0.000000 0.000001 0.000000 0.000000 0.000001 0.000000 0.000000 0.000001 0.000000 -0.000000 0.000001 0.000000 0.000000 0.000001 -0.000001 -0.000000 0.000001 -0.000001 -0.000000 0.000000 0.000000 0.000000 
0.804249 78.327278 0.790572 -5.207724 11.951457 2.788977 -0.000000 0.000000 -0.000000 -10.632702 9.070747 13.698315 28.438514 4.636040 4.077844 -10.740737 2.215134 -16.639748 0.000000 -0.000000 -0.000000 0.000000 -0.000000 0.000000 0.000003 0.000000 0.000000 -3.334686 -17.480860 -20.141688 24.964423 4.825659 -0.797286 -17.636716 -3.017247 14.589142 -0.000000 -0.000000 0.000000 -0.000000 -0.000000 0.000000 -0.000002 0.000000 0.000000 3.746758 -0.137925 -0.269870 4.898257 -0.331433 -0.115287 4.897146 -0.347120 -0.121842 6.077239 10.158323 -5.760265 17.093698 51.459881 -27.806033 0.000001 0.000000 -0.000000 0.000001 0.000000 -0.000000 0.000001 0.000000 -0.000000 3.432670 -5.798606 -11.260809 -12.241845 4.439552 -50.709332 0.000011 -31.988023 0.000025 -24.191852 38.960755 6.563507 21.275266 16.746277 -7.502175 5.627430 23.011247 1.232934 -0.000003 -0.000003 -0.000000 0.935781 3.561665 -24.169487 0.643807 2.911929 -24.929272 0.000002 -0.000000 -0.000000 6.907232 8.483075 -54.170725 4.927846 6.599405 -73.471211 0.000002 0.000001 0.000002 8.303283 8.754210 -59.930347 4.192158 6.336360 -66.947397 0.000000 0.000000 -0.000000 8.278934 7.904610 -68.900189 3.591016 1.958968 -61.464449 -0.000001 0.000001 0.000002 0.000000 -0.000001 -0.000002 0.387535 -0.368565 3.656880 5.899964 6.089301 67.596948 -0.000009 19.598097 0.000016 -14.273204 -9.675239 26.524958 1.279041 -7.842974 4.125303 9.182057 -26.232100 -1.377471 -0.000001 -0.000001 0.000001 -1.322832 1.110051 26.224713 0.457196 -2.484100 20.853744 -0.000001 0.000000 0.000004 -0.347767 1.071825 11.350793 1.014135 -3.620951 31.283072 0.000002 0.000001 0.000002 0.863272 -3.802433 17.477375 0.871494 -3.375500 28.945816 -0.000003 -0.000001 0.000002 0.887323 -3.537162 22.253607 0.582532 -2.790684 23.577157 -0.000002 -0.000000 -0.000003 0.000000 -0.000001 0.000000 0.000001 0.000001 -0.000000 0.000001 0.000001 -0.000000 0.000001 0.000001 -0.000000 0.000001 0.000001 -0.000000 0.000001 0.000001 -0.000000 -0.000000 0.000000 -0.000000 0.000001 0.000001 -0.000000 0.000001 0.000001 -0.000000 -0.000000 0.000000 -0.000000 -0.000000 0.000001 0.000000 -0.000000 0.000001 0.000000 -0.000000 0.000000 -0.000000 
0.692230 78.321495 0.780934 -5.107640 12.061318 2.722387 -0.000000 0.000000 -0.000000 -10.743327 9.047584 13.850865 28.262097 4.477207 4.102869 -10.581470 2.213149 -16.847049 -0.000000 -0.000000 -0.000000 -0.000000 -0.000000 -0.000000 -0.000000 -0.000003 0.000002 -3.451041 -17.460861 -20.042295 25.117399 4.733025 -0.688016 -17.730111 -3.005998 14.481495 0.000000 0.000000 0.000000 0.000000 0.000000 0.000000 0.000002 0.000000 -0.000000 3.728430 -0.124692 -0.409706 4.879430 -0.308272 -0.269823 4.878078 -0.325684 -0.275638 5.985969 10.236380 -5.618063 16.924681 51.897659 -27.779696 0.000001 -0.000000 -0.000000 0.000001 -0.000000 -0.000000 0.000001 -0.000000 -0.000000 3.416320 -5.814213 -11.273605 -9.819346 3.934758 -51.662721 0.000009 -32.877204 0.000021 -20.562583 38.142935 4.027136 21.444516 16.570365 -8.150969 5.597140 22.824674 1.232452 -0.000000 0.000000 0.000001 0.754026 3.150049 -24.798119 0.628700 2.879243 -24.630120 -0.000003 0.000000 -0.000004 6.641702 8.467507 -52.484003 4.890773 6.588358 -73.148410 0.000001 -0.000001 -0.000000 8.132358 8.856610 -58.141890 4.092762 6.293403 -66.043701 0.000000 0.000001 -0.000004 8.218006 8.001512 -67.360678 3.384566 1.842131 -59.492696 0.000000 0.000000 -0.000000 0.000002 -0.000003 0.000001 0.399240 -0.346574 3.969999 5.953452 6.354536 67.147146 -0.000000 19.646851 0.000001 -14.506516 -9.491404 26.648251 1.270977 -7.835727 4.090235 9.167985 -26.183291 -1.388910 0.000002 0.000003 -0.000000 -1.324828 1.111522 26.239196 0.457064 -2.483760 20.850713 -0.000001 0.000000 0.000007 -0.349438 1.072684 11.385225 1.015013 -3.622395 31.297037 0.000001 -0.000000 -0.000004 0.862626 -3.797475 17.506350 0.871781 -3.376019 28.950761 -0.000000 0.000000 0.000000 0.889665 -3.541724 22.279092 0.582648 -2.790953 23.579597 -0.000001 0.000000 -0.000003 0.000000 -0.000001 -0.000001 0.000000 -0.000000 0.000000 0.000000 -0.000000 0.000000 0.000000 -0.000000 0.000000 0.000000 -0.000000 0.000000 0.000000 -0.000000 0.000000 -0.000001 -0.000000 0.000000 0.000000 -0.000000 0.000000 0.000000 -0.000000 0.000000 -0.000001 -0.000000 0.000000 0.000000 -0.000000 0.000000 0.000000 -0.000000 0.000000 -0.000000 0.000000 -0.000000 
0.574644 78.319817 0.776608 -4.966511 12.298029 2.659751 -0.000000 0.000000 -0.000000 -10.940432 9.000372 13.993909 28.089290 4.233359 4.128020 -10.405031 2.202657 -16.997447 -0.000000 -0.000000 -0.000000 -0.000000 -0.000000 0.000000 -0.000000 0.000000 0.000001 -3.480095 -17.390546 -19.854388 25.175194 4.423397 -0.636513 -17.794127 -3.015942 14.504837 0.000000 -0.000000 0.000000 0.000000 -0.000000 0.000000 -0.000000 -0.000000 0.000000 3.662852 -0.125963 -0.552553 4.807755 -0.313910 -0.427202 4.806055 -0.332803 -0.432791 5.915767 10.299094 -5.449231 16.688889 52.279668 -27.484903 -0.000001 -0.000000 -0.000000 -0.000001 -0.000000 -0.000000 -0.000001 -0.000000 -0.000000 3.386312 -5.856129 -11.267821 -7.309923 2.892971 -52.082443 0.000004 -33.685745 0.000024 -16.858876 37.759475 1.668501 21.895684 16.690097 -8.712799 5.565435 22.629211 1.231964 -0.000000 0.000003 -0.000001 0.619579 2.859788 -24.891407 0.615881 2.851148 -24.373634 -0.000002 0.000001 -0.000005 6.396752 8.463826 -50.758527 4.864309 6.580345 -72.917645 0.000002 -0.000001 -0.000000 7.963909 8.962126 -56.350348 4.010587 6.256461 -65.291800 -0.000000 -0.000002 -0.000001 8.292571 8.180340 -65.623269 3.228934 1.747682 -57.979796 -0.000000 0.000001 -0.000000 0.000000 0.000003 -0.000002 0.412937 -0.284709 4.299009 6.109266 6.609166 66.692583 -0.000005 19.471269 0.000013 -14.608296 -9.448944 26.689002 1.289173 -7.857704 4.073214 9.167897 -26.182989 -1.388989 -0.000001 -0.000000 -0.000000 -1.323064 1.105189 26.253579 0.456625 -2.482603 20.840604 -0.000001 -0.000000 0.000002 -0.347520 1.056290 11.414955 1.014895 -3.622201 31.295138 0.000001 -0.000001 0.000003 0.867947 -3.812827 17.519104 0.871618 -3.375726 28.948001 -0.000000 -0.000000 0.000006 0.892311 -3.547727 22.288340 0.582694 -2.791047 23.580453 0.000000 0.000000 -0.000003 -0.000000 0.000000 -0.000002 -0.000001 -0.000001 0.000000 -0.000001 -0.000001 0.000000 -0.000001 -0.000001 0.000000 -0.000001 -0.000001 0.000000 -0.000001 -0.000001 0.000000 -0.000001 -0.000001 0.000000 -0.000001 -0.000001 0.000000 -0.000001 -0.000001 0.000000 -0.000001 -0.000001 0.000000 -0.000000 0.000000 -0.000000 -0.000000 0.000000 -0.000000 -0.000000 0.000000 -0.000000 
